<svg id="SvgjsSvg1012" width="288" height="288" xmlns="http://www.w3.org/2000/svg" version="1.1" xmlns:xlink="http://www.w3.org/1999/xlink" xmlns:svgjs="http://svgjs.com/svgjs"><defs id="SvgjsDefs1013"></defs><g id="SvgjsG1014"><svg xmlns="http://www.w3.org/2000/svg" width="288" height="288" version="1.0" viewBox="0 0 512 512"><g transform="matrix(.1 0 0 -.1 0 512)" fill="#ffbf66" class="color000 svgShape"><path d="M428 2993c-9-10-41-68-71-129l-56-111-126-18c-215-31-226-61-75-208l100-98-20-111c-25-138-25-170-2-191 30-27 59-20 180 44l114 61 118-61c125-65 157-72 183-43 22 24 21 43-4 186l-21 119 101 96c109 104 119 124 78 165-19 19-45 26-153 40l-131 18-59 120c-32 66-67 124-76 129-27 14-64 10-80-8zM1480 3001c-8-5-42-63-74-129l-59-119-126-18c-130-17-165-30-176-64-9-31 10-59 108-151l90-85-23-134c-25-149-21-175 27-187 22-6 52 5 150 55l122 63 114-61c121-65 154-72 180-43 22 24 21 63-2 192l-20 105 100 101c70 72 99 108 99 125 0 52-22 62-178 85l-124 18-55 110c-30 61-62 119-71 129-16 18-57 22-82 8zM2514 2993c-10-10-41-68-70-129l-52-111-128-17c-148-21-174-32-174-79 0-27 15-46 97-129l97-97-19-118c-23-142-23-172 1-190 31-22 58-15 178 48l116 61 116-61c120-63 147-70 178-48 24 18 24 48 1 190l-19 118 97 97c82 83 97 102 97 129 0 47-26 58-173 79l-129 17-60 121c-32 66-64 124-71 128-21 14-65 9-83-9zM3558 2993c-9-10-41-68-71-129l-55-110-124-18c-156-23-178-33-178-85 0-17 29-53 99-125l100-101-20-105c-24-133-24-172-1-193 30-27 58-20 178 44l114 60 123-62c98-49 129-61 150-55 48 12 52 39 27 187l-23 134 90 85c98 92 118 120 108 151-11 34-46 47-176 64l-126 18-59 119c-32 66-67 124-76 129-27 14-64 10-80-8zM4608 3000c-9-6-41-61-71-124-30-62-59-116-64-119-5-3-65-14-133-23-102-15-129-22-147-40-41-41-31-61 78-165l101-96-21-119c-26-145-26-166-3-187 30-27 58-20 182 44l116 61 116-61c121-65 155-72 181-43 22 24 21 55-3 190l-20 111 100 98c150 147 141 174-73 207l-132 21-55 112c-30 61-61 119-69 127-15 18-57 21-83 6zm131-360c11-5 54-15 96-21l77-12-61-61c-67-68-71-81-51-186 6-29 8-55 6-57-2-2-36 12-75 31-39 20-77 36-86 36-9 0-47-16-86-36-39-19-72-34-74-32-2 2 1 26 6 53 21 108 18 121-51 190l-62 62 78 12c43 6 87 18 99 25 11 7 36 46 55 85l34 72 38-75c21-41 47-80 57-86z" fill="#ffbf66" class="color000 svgShape"></path></g></svg></g></svg>