<svg id="SvgjsSvg1001" width="288" height="288" xmlns="http://www.w3.org/2000/svg" version="1.1" xmlns:xlink="http://www.w3.org/1999/xlink" xmlns:svgjs="http://svgjs.com/svgjs"><defs id="SvgjsDefs1002"></defs><g id="SvgjsG1008" transform="matrix(1,0,0,1,0,0)"><svg xmlns="http://www.w3.org/2000/svg" width="288" height="288" version="1.0" viewBox="0 0 512 512"><g transform="matrix(.1 0 0 -.1 0 512)" fill="#ffbf66" class="color000 svgShape"><path d="M428 2993c-9-10-41-68-71-129l-56-111-128-17c-99-14-133-23-150-39-43-39-32-64 77-169l101-96-20-113c-26-139-26-171-3-192 30-27 59-20 180 44l114 61 118-61c125-65 157-72 183-43 22 24 21 40-4 186l-20 121 100 96c109 104 118 123 78 163-18 18-43 26-113 36-188 26-161 9-230 143-33 65-67 123-75 128-23 14-65 10-81-8zM1480 3001c-8-5-41-63-74-128l-58-119-127-18c-130-18-165-31-176-65-9-30 9-56 107-150l91-86-23-134c-25-149-21-175 27-187 22-6 52 5 150 55l122 63 114-61c121-65 154-72 180-43 22 24 21 63-2 192l-20 105 100 101c75 77 99 108 99 128 0 49-26 61-169 81l-132 18-56 111c-30 61-62 119-71 129-16 18-57 22-82 8zM2514 2993c-10-10-41-68-70-129l-53-111-128-17c-147-21-173-32-173-79 0-27 15-46 97-129l97-97-19-118c-23-142-23-172 1-190 31-22 58-15 178 48l116 61 116-61c120-63 147-70 178-48 24 18 24 48 1 190l-19 118 97 97c82 83 97 102 97 129 0 47-26 58-173 79l-129 17-60 121c-32 66-64 124-71 128-21 14-65 9-83-9zM3558 2993c-9-10-41-68-71-129l-56-111-132-18c-143-20-169-32-169-81 0-20 24-51 99-128l100-101-20-105c-24-133-24-172-1-193 30-27 58-20 178 44l114 60 123-62c98-49 129-61 150-55 48 12 52 39 27 187l-23 134 91 86c98 94 116 120 107 150-11 34-46 47-176 65l-127 18-58 119c-33 65-67 123-76 128-27 14-64 10-80-8zm139-352c10-5 53-14 96-21l78-13-66-67c-36-38-65-74-64-82 0-7 6-46 13-85 7-40 9-73 5-73-5 0-37 16-72 35-35 19-71 35-81 35-9 0-48-16-87-36-39-19-73-33-76-31-2 3 0 31 6 63 19 102 17 109-51 180-33 35-57 64-52 64 16 0 138 21 157 26 10 3 36 42 59 87l40 82 39-77c21-43 47-81 56-87zM4610 3001c-8-5-42-63-75-128-68-134-41-117-229-143-70-10-95-18-113-36-40-40-31-59 78-164l102-97-22-119c-26-146-26-166-3-187 30-27 58-20 182 44l116 61 116-61c121-65 155-72 181-43 22 24 21 55-3 191l-21 112 101 97c109 105 120 130 78 169-18 16-52 25-151 39l-128 17-56 111c-30 61-62 119-71 129-16 18-58 22-82 8zm127-360c10-5 52-14 93-20 41-7 75-13 77-14 1-2-24-30-57-62-66-66-70-79-50-185 6-29 8-55 6-57-2-2-36 12-75 31-39 20-77 36-86 36-9 0-47-16-86-36-39-19-72-34-74-32-2 2 1 26 6 53 21 109 18 121-52 191-35 35-60 64-56 64 35 0 156 24 172 35 11 7 36 45 55 84l34 72 38-75c21-41 46-79 55-85z" fill="#ffbf66" class="color000 svgShape"></path></g></svg></g></svg>